# xmcd CD database file
#
# Track frame offsets:
#	150
#	26832
#	54858
#	76757
#	113024
#	144113
#	170697
#	196424
#	226035
#
# Disc length: 3359 seconds
#
# Revision: 0
# Processed by: cddbd v1.5.2PL0 Copyright (c) Steve Scherf et al.
# Submitted via: CDex 1.70beta2
#
DISCID=630d1d09
DTITLE=Christian Havel - rifleksen Besinnung
DYEAR=1999
DGENRE=Jazz
TTITLE0=Rückkehr (back to n.y.c.)
TTITLE1=Prüfung (examination)
TTITLE2=Veränderung (change)
TTITLE3=Battersea Powerstation
TTITLE4=Besinnung (reflection)
TTITLE5=Gelsenplage (mosquito pain)
TTITLE6=Chelsea Bridge
TTITLE7=This Joker Is A Smoker
TTITLE8=Rika fliegt (nika flys)
EXTD=YEAR: 1999
EXTT0=
EXTT1=
EXTT2=
EXTT3=
EXTT4=
EXTT5=
EXTT6=
EXTT7=
EXTT8=
PLAYORDER=
